<svg version="1.2" xmlns="http://www.w3.org/2000/svg" viewBox="0 0 1024 1024" width="128" height="128">
	<style>
		.s0 { fill: #8bc24a } 
	</style>
	<path id="Path 0" class="s0" d="m947.01 54.4c-1.52 0.76-46.93 14.74-100.92 31.06-53.99 16.33-100.52 30.53-103.38 31.56-2.87 1.03-6.42 4.08-7.89 6.76-2.64 4.81-2.55 5 5.24 11.41 4.35 3.58 17.57 13.47 29.38 21.99 11.81 8.51 21.5 16.02 21.53 16.69 0.04 0.67-8.76 10.2-19.54 21.18-10.79 10.97-28.45 28.75-39.25 39.5-10.8 10.75-40.93 40.8-66.96 66.78-26.04 25.98-56.06 56.01-66.72 66.72-10.66 10.71-39.12 39.3-63.23 63.52-24.11 24.23-45.16 45.41-46.79 47.05-2.84 2.89-3.27 2.8-11.31-2.44-4.6-2.99-29.22-17.9-54.71-33.13-45.48-27.17-46.53-27.69-55.86-27.59-5.23 0.06-11.37 0.97-13.64 2.04-2.27 1.06-22.91 20.84-45.87 43.94-22.96 23.11-55.29 55.55-71.85 72.08-16.56 16.54-42.57 42.48-57.8 57.66-15.23 15.17-46.27 45.85-68.98 68.17-22.71 22.32-43.35 43.2-45.87 46.4-3.22 4.07-4.59 7.97-4.59 13.02 0 6.76 0.74 7.83 11.96 17.23 6.58 5.51 16.49 13.49 22.02 17.73 6 4.59 12.65 8.13 16.48 8.76 3.53 0.59 8.69 0.6 11.47 0.04 3.42-0.7 11.68-7.68 25.69-21.7 11.35-11.36 28.48-28.45 38.07-37.97 9.59-9.52 34.36-34.07 55.05-54.56 20.69-20.5 43.38-43.18 50.43-50.4 7.05-7.23 26.45-26.73 43.12-43.34 16.67-16.61 33.4-33.28 37.18-37.05l6.88-6.86c37.69 22.43 61.84 37.13 77.99 47.14 16.14 10.01 31.42 18.62 33.94 19.14 2.53 0.51 7.89 0.53 11.93 0.02 6.08-0.76 9.39-2.83 19.27-12.03 6.56-6.12 27.2-26.56 45.87-45.43 18.67-18.86 50.46-50.75 70.64-70.85 20.18-20.1 54.33-54.13 75.89-75.63 21.56-21.51 45.54-45.33 53.29-52.94 7.76-7.62 29.34-29.22 47.97-48 18.63-18.78 36.86-37.1 40.53-40.72 6.48-6.4 6.77-6.5 11.01-3.9 2.39 1.48 15.08 10.83 28.2 20.79 13.12 9.96 25.5 18.11 27.52 18.12 2.02 0 5.06-0.92 6.75-2.06 2.38-1.59 5.59-15.91 14.15-63.14 6.09-33.6 14.07-77.58 17.73-97.74 3.66-20.16 6.79-39.06 6.95-42.01 0.18-3.22-0.8-5.96-2.46-6.89-1.51-0.85-5.23-1.53-8.26-1.52-3.02 0.01-6.74 0.64-8.25 1.4zm-154.13 345.48c-3.64 3.23-3.67 5.48-3.75 282.21-0.08 265.72 0.08 279.14 3.21 282.83l3.29 3.88 142.51 0.39c7.13-8.08 7.19-12.52 7.17-285.88-0.01-276.74-0.02-277.74-3.74-282.21l-3.74-4.48c-138.84 0-141.41 0.12-144.95 3.26zm-225.7 196.64c-3.53 0.4-7.89 1.94-9.69 3.44-3.1 2.58-3.27 12.14-3.27 182.72v179.99c7.67 6.37 10.76 6.54 74.16 6.99 36.48 0.26 68.19 0.08 70.46-0.41 2.27-0.48 5.36-1.98 6.88-3.32 2.41-2.14 2.76-24.71 2.81-182.85l0.06-180.4c-7.67-6.38-10.51-6.52-71.41-6.69-34.97-0.1-66.46 0.14-70 0.53zm-206.42 122.71c-21.2 0.5-38.74 1.05-38.99 1.22-0.26 0.18-1.42 3.08-2.59 6.44-1.58 4.53-1.8 35.64-0.85 120.94 1.24 111.69 1.38 114.93 4.93 118.1 3.5 3.12 6.49 3.28 71.95 3.75 66.51 0.49 68.43 0.41 73.35-2.85l5.04-3.35c0.12-231.68-0.07-238.79-3.15-241.45-2.82-2.43-7.94-2.88-37.21-3.26-18.67-0.24-51.29-0.03-72.48 0.46zm-269.81 133.5c-2.07 0.79-4.75 2.94-5.97 4.78-1.59 2.41-2.23 17.41-2.29 53.44-0.07 47.27 0.13 50.32 3.51 54.16l3.58 4.08 139.78 0.81 9.18-8.14v-102.63l-9.18-8.14c-104.52 0.16-136.55 0.85-138.61 1.64z"/>
</svg>